<svg width="600" height="300" viewBox="0 0 600 300" fill="none" xmlns="http://www.w3.org/2000/svg">
<g clip-path="url(#clip0_62_138)">
<rect width="600" height="300" fill="#767676"/>
<mask id="mask0_62_138" style="mask-type:alpha" maskUnits="userSpaceOnUse" x="0" y="0" width="600" height="300">
<rect width="600" height="300" fill="#D9D9D9"/>
</mask>
<g mask="url(#mask0_62_138)">
<rect x="143.371" y="-125" width="182.069" height="535.089" transform="rotate(18.4532 143.371 -125)" fill="#A2A2A2"/>
<rect x="452.45" y="-111.37" width="182.069" height="535.089" transform="rotate(18.4532 452.45 -111.37)" fill="#A2A2A2"/>
</g>
<path d="M-3.2 225V85H119.2V120H38.2V190H122.8V225H-3.2ZM18.6 170.6V137.8H111.8V170.6H18.6ZM160.642 225L152.842 203.8L190.842 169.4C194.442 166.333 198.176 163 202.042 159.4C205.909 155.8 209.442 152.133 212.642 148.4C215.976 144.533 218.642 140.867 220.642 137.4C222.642 133.933 223.642 130.867 223.642 128.2C223.642 126.333 223.176 124.733 222.242 123.4C221.309 121.933 219.909 120.733 218.042 119.8C216.176 118.867 213.909 118.4 211.242 118.4C208.042 118.4 204.976 119 202.042 120.2C199.242 121.267 196.376 123.2 193.442 126C190.509 128.667 187.376 132.4 184.042 137.2L152.442 120.2C156.709 113.133 162.042 106.6 168.442 100.6C174.842 94.6 182.042 89.8 190.042 86.2C198.176 82.6 206.776 80.8667 215.842 81C225.309 81 233.776 82.8 241.242 86.4C248.842 89.8667 254.842 94.7333 259.242 101C263.642 107.267 265.842 114.467 265.842 122.6C265.842 126.467 265.242 130.333 264.042 134.2C262.842 138.067 261.109 141.867 258.842 145.6C256.576 149.333 253.842 153.133 250.642 157C247.576 160.867 244.176 164.667 240.442 168.4C236.842 172 232.976 175.667 228.842 179.4L191.442 212L191.242 188.2H273.442V225H160.642ZM308.714 225V85H431.114V120H350.114V190H434.714V225H308.714ZM330.514 170.6V137.8H423.714V170.6H330.514ZM481.956 225V85H604.356V120H523.356V190H607.956V225H481.956ZM503.756 170.6V137.8H596.956V170.6H503.756Z" fill="#575757"/>
<path d="M373.333 159.167C373.333 205 341.25 227.917 303.117 241.208C301.12 241.885 298.951 241.853 296.975 241.117C258.75 227.917 226.667 205 226.667 159.167V95C226.667 92.5689 227.633 90.2373 229.352 88.5182C231.071 86.7991 233.402 85.8333 235.833 85.8333C254.167 85.8333 277.083 74.8333 293.033 60.9C294.975 59.2408 297.446 58.3292 300 58.3292C302.554 58.3292 305.025 59.2408 306.967 60.9C323.008 74.925 345.833 85.8333 364.167 85.8333C366.598 85.8333 368.929 86.7991 370.649 88.5182C372.368 90.2373 373.333 92.5689 373.333 95V159.167Z" fill="#767676" stroke="white" stroke-width="5" stroke-linecap="round" stroke-linejoin="round"/>
<path d="M255 177V190.5C255 193.2 256.8 195 259.5 195H277.5V181.5H291V168H300L306.3 161.7C312.554 163.879 319.363 163.87 325.612 161.676C331.861 159.482 337.18 155.233 340.7 149.623C344.219 144.012 345.731 137.374 344.987 130.793C344.243 124.212 341.288 118.078 336.605 113.395C331.922 108.712 325.788 105.757 319.207 105.013C312.626 104.269 305.988 105.781 300.377 109.3C294.767 112.82 290.518 118.139 288.324 124.388C286.13 130.637 286.121 137.446 288.3 143.7L255 177Z" fill="white"/>
<circle cx="323.049" cy="126.951" r="9.87805" fill="#767676"/>
</g>
<defs>
<clipPath id="clip0_62_138">
<rect width="600" height="300" fill="white"/>
</clipPath>
</defs>
</svg>
